<svg width="30" height="30" viewBox="0 0 30 30" fill="none" xmlns="http://www.w3.org/2000/svg">
<path d="M15.6316 25.7368H3.75789C3.55689 25.7368 3.36412 25.657 3.22198 25.5149C3.07985 25.3727 3 25.18 3 24.9789V3.75789C3 3.55689 3.07985 3.36412 3.22198 3.22198C3.36412 3.07985 3.55689 3 3.75789 3H24.9789C25.18 3 25.3727 3.07985 25.5149 3.22198C25.657 3.36412 25.7368 3.55689 25.7368 3.75789V15.6316" stroke="black" stroke-width="1.5" stroke-linecap="round" stroke-linejoin="round"/>
<path d="M3 19.4211L11.8421 15.6317L18.7895 18.7896M19.4211 23.2106H23.2105M27 23.2106H23.2105M23.2105 23.2106V19.4211M23.2105 23.2106V27.0001M19.4211 11.8422C18.751 11.8422 18.1085 11.576 17.6347 11.1022C17.1609 10.6285 16.8947 9.98589 16.8947 9.31587C16.8947 8.64585 17.1609 8.00327 17.6347 7.52949C18.1085 7.05572 18.751 6.78955 19.4211 6.78955C20.0911 6.78955 20.7337 7.05572 21.2074 7.52949C21.6812 8.00327 21.9474 8.64585 21.9474 9.31587C21.9474 9.98589 21.6812 10.6285 21.2074 11.1022C20.7337 11.576 20.0911 11.8422 19.4211 11.8422V11.8422Z" stroke="black" stroke-width="1.5" stroke-linecap="round" stroke-linejoin="round"/>
</svg>
