<svg width="30" height="30" viewBox="0 0 30 30" fill="none" xmlns="http://www.w3.org/2000/svg">
<path fill-rule="evenodd" clip-rule="evenodd" d="M27 6.6C27 5.64522 26.6207 4.72955 25.9456 4.05442C25.2705 3.37928 24.3548 3 23.4 3H6.6C5.64522 3 4.72955 3.37928 4.05441 4.05442C3.37928 4.72955 3 5.64522 3 6.6V14.4C3.0001 14.5012 3.013 14.602 3.0384 14.7C3.013 14.798 3.0001 14.8988 3 15V23.4C3 24.3548 3.37928 25.2705 4.05441 25.9456C4.72955 26.6207 5.64522 27 6.6 27H23.4C24.3548 27 25.2705 26.6207 25.9456 25.9456C26.6207 25.2705 27 24.3548 27 23.4V19.8C26.9999 19.6988 26.987 19.598 26.9616 19.5C26.987 19.402 26.9999 19.3012 27 19.2V6.6ZM23.4072 18.396C23.8248 18.4032 24.2232 18.4224 24.6 18.4512V6.6C24.6 6.28174 24.4736 5.97652 24.2485 5.75147C24.0235 5.52643 23.7183 5.4 23.4 5.4H6.6C6.28174 5.4 5.97651 5.52643 5.75147 5.75147C5.52643 5.97652 5.4 6.28174 5.4 6.6V13.8192C10.5564 13.986 14.28 15.228 16.896 16.9668C15.9048 17.3184 14.796 17.8188 13.7088 18.474C12.03 19.482 10.3236 20.898 9.1752 22.7736C9.09294 22.908 9.03796 23.0573 9.0134 23.213C8.98884 23.3687 8.99519 23.5276 9.03207 23.6809C9.06896 23.8341 9.13566 23.9785 9.22837 24.106C9.32108 24.2334 9.43798 24.3413 9.5724 24.4236C9.70682 24.5059 9.85613 24.5608 10.0118 24.5854C10.1675 24.61 10.3264 24.6036 10.4797 24.5667C10.6329 24.5298 10.7773 24.4631 10.9048 24.3704C11.0322 24.2777 11.1401 24.1608 11.2224 24.0264C12.1056 22.5828 13.476 21.4128 14.9448 20.5308C16.4112 19.65 17.9028 19.1004 18.9372 18.8604C20.3943 18.5276 21.8864 18.3721 23.3808 18.3972H23.4072V18.396ZM21.0264 8.3856C20.4915 8.00876 19.8543 7.80443 19.2 7.8C18.708 7.8 17.9964 7.938 17.3736 8.3856C16.6896 8.8776 16.2 9.6888 16.2 10.8C16.2 11.9112 16.6896 12.7212 17.3736 13.2132C17.9083 13.5905 18.5456 13.7952 19.2 13.8C19.692 13.8 20.4036 13.662 21.0264 13.2132C21.7104 12.7212 22.2 11.9124 22.2 10.8C22.2 9.6888 21.7104 8.8788 21.0264 8.3856Z" fill="black"/>
</svg>
