<svg width="30" height="30" viewBox="0 0 30 30" fill="none" xmlns="http://www.w3.org/2000/svg">
<path d="M3.121 20.3385L12.392 16.3652L17.6897 18.7731M21.5028 27.1209L24.3119 24.3118M27.121 21.5027L24.3119 24.3118M24.3119 24.3118L21.5028 21.5027M24.3119 24.3118L27.121 27.1209M20.3386 12.392C19.6361 12.392 18.9623 12.1129 18.4656 11.6161C17.9688 11.1194 17.6897 10.4456 17.6897 9.7431C17.6897 9.04058 17.9688 8.36683 18.4656 7.87007C18.9623 7.37331 19.6361 7.09424 20.3386 7.09424C21.0411 7.09424 21.7149 7.37331 22.2116 7.87007C22.7084 8.36683 22.9875 9.04058 22.9875 9.7431C22.9875 10.4456 22.7084 11.1194 22.2116 11.6161C21.7149 12.1129 21.0411 12.392 20.3386 12.392V12.392Z" stroke="black" stroke-width="1.5" stroke-linecap="round" stroke-linejoin="round"/>
<path d="M16.3653 26.9608H3.91566C3.7049 26.9608 3.50278 26.8771 3.35375 26.7281C3.20472 26.5791 3.121 26.3769 3.121 26.1662V3.91575C3.121 3.705 3.20472 3.50287 3.35375 3.35384C3.50278 3.20482 3.7049 3.12109 3.91566 3.12109H26.1661C26.3768 3.12109 26.579 3.20482 26.728 3.35384C26.877 3.50287 26.9607 3.705 26.9607 3.91575V16.3654" stroke="black" stroke-width="1.5" stroke-linecap="round" stroke-linejoin="round"/>
</svg>
