<svg width="30" height="30" viewBox="0 0 30 30" fill="none" xmlns="http://www.w3.org/2000/svg">
<path d="M22.8333 2H6.16667C5.0616 2 4.00179 2.43899 3.22039 3.22039C2.43899 4.00179 2 5.0616 2 6.16667V22.8333C2 23.9384 2.43899 24.9982 3.22039 25.7796C4.00179 26.561 5.0616 27 6.16667 27H22.8333C23.9384 27 24.9982 26.561 25.7796 25.7796C26.561 24.9982 27 23.9384 27 22.8333V6.16667C27 5.0616 26.561 4.00179 25.7796 3.22039C24.9982 2.43899 23.9384 2 22.8333 2ZM24.2222 22.8333C24.2222 23.2017 24.0759 23.555 23.8154 23.8154C23.555 24.0759 23.2017 24.2222 22.8333 24.2222H6.16667C5.79831 24.2222 5.44504 24.0759 5.18457 23.8154C4.92411 23.555 4.77778 23.2017 4.77778 22.8333V6.16667C4.77778 5.79831 4.92411 5.44504 5.18457 5.18457C5.44504 4.92411 5.79831 4.77778 6.16667 4.77778H22.8333C23.2017 4.77778 23.555 4.92411 23.8154 5.18457C24.0759 5.44504 24.2222 5.79831 24.2222 6.16667V22.8333Z" fill="black"/>
<path d="M20.3603 8.63966C20.1593 8.43697 19.9201 8.2761 19.6566 8.16631C19.3931 8.05652 19.1104 8 18.825 8C18.5395 8 18.2569 8.05652 17.9933 8.16631C17.7298 8.2761 17.4906 8.43697 17.2896 8.63966L14.5 11.4509L11.7104 8.63966C11.3032 8.23246 10.7509 8.00369 10.175 8.00369C9.59915 8.00369 9.04686 8.23246 8.63966 8.63966C8.23246 9.04686 8.00369 9.59915 8.00369 10.175C8.00369 10.7509 8.23246 11.3032 8.63966 11.7104L11.4509 14.5L8.63966 17.2896C8.43697 17.4906 8.2761 17.7298 8.16631 17.9933C8.05652 18.2569 8 18.5395 8 18.825C8 19.1104 8.05652 19.3931 8.16631 19.6566C8.2761 19.9201 8.43697 20.1593 8.63966 20.3603C8.84069 20.563 9.07986 20.7239 9.34338 20.8337C9.6069 20.9435 9.88955 21 10.175 21C10.4605 21 10.7431 20.9435 11.0067 20.8337C11.2702 20.7239 11.5094 20.563 11.7104 20.3603L14.5 17.5491L17.2896 20.3603C17.4906 20.563 17.7298 20.7239 17.9933 20.8337C18.2569 20.9435 18.5395 21 18.825 21C19.1104 21 19.3931 20.9435 19.6566 20.8337C19.9201 20.7239 20.1593 20.563 20.3603 20.3603C20.563 20.1593 20.7239 19.9201 20.8337 19.6566C20.9435 19.3931 21 19.1104 21 18.825C21 18.5395 20.9435 18.2569 20.8337 17.9933C20.7239 17.7298 20.563 17.4906 20.3603 17.2896L17.5491 14.5L20.3603 11.7104C20.563 11.5094 20.7239 11.2702 20.8337 11.0067C20.9435 10.7431 21 10.4605 21 10.175C21 9.88955 20.9435 9.6069 20.8337 9.34338C20.7239 9.07986 20.563 8.84069 20.3603 8.63966V8.63966Z" fill="black"/>
</svg>
