<svg width="30" height="30" viewBox="0 0 30 30" fill="none" xmlns="http://www.w3.org/2000/svg">
<path d="M22.8333 2H6.16667C5.0616 2 4.00179 2.43899 3.22039 3.22039C2.43899 4.00179 2 5.0616 2 6.16667V22.8333C2 23.9384 2.43899 24.9982 3.22039 25.7796C4.00179 26.561 5.0616 27 6.16667 27H22.8333C23.9384 27 24.9982 26.561 25.7796 25.7796C26.561 24.9982 27 23.9384 27 22.8333V6.16667C27 5.0616 26.561 4.00179 25.7796 3.22039C24.9982 2.43899 23.9384 2 22.8333 2ZM24.2222 22.8333C24.2222 23.2017 24.0759 23.555 23.8154 23.8154C23.555 24.0759 23.2017 24.2222 22.8333 24.2222H6.16667C5.79831 24.2222 5.44504 24.0759 5.18457 23.8154C4.92411 23.555 4.77778 23.2017 4.77778 22.8333V6.16667C4.77778 5.79831 4.92411 5.44504 5.18457 5.18457C5.44504 4.92411 5.79831 4.77778 6.16667 4.77778H22.8333C23.2017 4.77778 23.555 4.92411 23.8154 5.18457C24.0759 5.44504 24.2222 5.79831 24.2222 6.16667V22.8333Z" fill="black"/>
<path d="M14.5 17.8998C15.8925 17.8998 17 16.7685 17 15.3498C17 13.9312 15.8925 12.7998 14.5 12.7998C13.1075 12.7998 12 13.9312 12 15.3498C12 16.7685 13.1075 17.8998 14.5 17.8998Z" fill="black"/>
<path d="M21.8475 13.8081C21.6511 12.8292 21.2674 11.8994 20.7183 11.0719C20.1788 10.2579 19.4914 9.55676 18.6933 9.00645C17.882 8.44658 16.9705 8.05521 16.0108 7.8547C15.5067 7.75043 14.9935 7.69916 14.4792 7.7017V6L11.1667 8.55L14.4792 11.1V9.4017C14.8825 9.4 15.2858 9.4391 15.675 9.5207C16.4208 9.67659 17.1293 9.98073 17.76 10.4157C18.382 10.8435 18.9173 11.3895 19.3367 12.0239C19.9878 13.0059 20.335 14.1645 20.3333 15.35C20.3332 16.1455 20.1774 16.933 19.875 17.6662C19.7279 18.0195 19.5482 18.3576 19.3383 18.676C19.1276 18.9926 18.8882 19.2883 18.6233 19.5592C17.8167 20.3804 16.7926 20.9438 15.6767 21.1801C14.9006 21.3399 14.1011 21.3399 13.325 21.1801C12.5788 21.0241 11.87 20.7197 11.2392 20.2842C10.6179 19.8569 10.0832 19.3114 9.66416 18.6777C9.0138 17.6948 8.66642 16.5359 8.66667 15.35H7C7.00089 16.8746 7.4474 18.3644 8.2825 19.6289C8.82237 20.4416 9.50905 21.142 10.3058 21.6927C11.5438 22.5473 13.0051 23.0028 14.5 23C15.0077 22.9999 15.5142 22.9478 16.0117 22.8444C16.9706 22.6425 17.8816 22.2512 18.6933 21.6927C19.0919 21.4188 19.4634 21.1059 19.8025 20.7585C20.1421 20.4112 20.449 20.0321 20.7192 19.6263C21.5563 18.3639 22.0026 16.8741 22 15.35C21.9999 14.8321 21.9489 14.3155 21.8475 13.8081V13.8081Z" fill="black"/>
</svg>
