<svg width="30" height="30" viewBox="0 0 30 30" fill="none" xmlns="http://www.w3.org/2000/svg">
<path d="M22.8333 2H6.16667C5.0616 2 4.00179 2.43899 3.22039 3.22039C2.43899 4.00179 2 5.0616 2 6.16667V22.8333C2 23.9384 2.43899 24.9982 3.22039 25.7796C4.00179 26.561 5.0616 27 6.16667 27H22.8333C23.9384 27 24.9982 26.561 25.7796 25.7796C26.561 24.9982 27 23.9384 27 22.8333V6.16667C27 5.0616 26.561 4.00179 25.7796 3.22039C24.9982 2.43899 23.9384 2 22.8333 2ZM24.2222 22.8333C24.2222 23.2017 24.0759 23.555 23.8154 23.8154C23.555 24.0759 23.2017 24.2222 22.8333 24.2222H6.16667C5.79831 24.2222 5.44504 24.0759 5.18457 23.8154C4.92411 23.555 4.77778 23.2017 4.77778 22.8333V6.16667C4.77778 5.79831 4.92411 5.44504 5.18457 5.18457C5.44504 4.92411 5.79831 4.77778 6.16667 4.77778H22.8333C23.2017 4.77778 23.555 4.92411 23.8154 5.18457C24.0759 5.44504 24.2222 5.79831 24.2222 6.16667V22.8333Z" fill="black"/>
<path d="M14.5 7C14.7944 7.00001 15.0782 7.10968 15.2961 7.30761C15.514 7.50553 15.6504 7.77754 15.6787 8.07057L15.6842 8.18426V20.8163C15.6841 21.1205 15.5669 21.4129 15.357 21.633C15.1472 21.8531 14.8607 21.984 14.5569 21.9986C14.2531 22.0132 13.9554 21.9104 13.7254 21.7115C13.4953 21.5125 13.3507 21.2327 13.3213 20.93L13.3158 20.8163V8.18426C13.3158 7.87017 13.4406 7.56895 13.6626 7.34686C13.8847 7.12477 14.1859 7 14.5 7ZM11.3421 9.36851C11.6562 9.36851 11.9574 9.49328 12.1795 9.71537C12.4016 9.93747 12.5263 10.2387 12.5263 10.5528V18.4478C12.5263 18.7619 12.4016 19.0631 12.1795 19.2852C11.9574 19.5073 11.6562 19.6321 11.3421 19.6321C11.028 19.6321 10.7268 19.5073 10.5047 19.2852C10.2827 19.0631 10.1579 18.7619 10.1579 18.4478V10.5528C10.1579 10.2387 10.2827 9.93747 10.5047 9.71537C10.7268 9.49328 11.028 9.36851 11.3421 9.36851V9.36851ZM17.6579 9.36851C17.972 9.36851 18.2732 9.49328 18.4953 9.71537C18.7173 9.93747 18.8421 10.2387 18.8421 10.5528V18.4478C18.8421 18.7619 18.7173 19.0631 18.4953 19.2852C18.2732 19.5073 17.972 19.6321 17.6579 19.6321C17.3438 19.6321 17.0426 19.5073 16.8205 19.2852C16.5984 19.0631 16.4737 18.7619 16.4737 18.4478V10.5528C16.4737 10.2387 16.5984 9.93747 16.8205 9.71537C17.0426 9.49328 17.3438 9.36851 17.6579 9.36851V9.36851ZM8.18421 11.737C8.49828 11.737 8.79949 11.8618 9.02157 12.0839C9.24366 12.306 9.36842 12.6072 9.36842 12.9213V16.0793C9.36842 16.3934 9.24366 16.6946 9.02157 16.9167C8.79949 17.1388 8.49828 17.2636 8.18421 17.2636C7.87014 17.2636 7.56893 17.1388 7.34685 16.9167C7.12476 16.6946 7 16.3934 7 16.0793V12.9213C7 12.6072 7.12476 12.306 7.34685 12.0839C7.56893 11.8618 7.87014 11.737 8.18421 11.737V11.737ZM20.8158 11.737C21.1102 11.737 21.394 11.8467 21.6119 12.0446C21.8298 12.2426 21.9662 12.5146 21.9945 12.8076L22 12.9213V16.0793C21.9998 16.3834 21.8827 16.6758 21.6728 16.896C21.463 17.1161 21.1765 17.247 20.8727 17.2616C20.5689 17.2762 20.2712 17.1734 20.0412 16.9745C19.8111 16.7755 19.6665 16.4957 19.6371 16.193L19.6316 16.0793V12.9213C19.6316 12.6072 19.7563 12.306 19.9784 12.0839C20.2005 11.8618 20.5017 11.737 20.8158 11.737Z" fill="black"/>
</svg>
